G04 ================== begin FILE IDENTIFICATION RECORD ==================*
G04 Layout Name:  sophum_camera_v1.brd*
G04 Film Name:    BOTTOM*
G04 File Format:  Gerber RS274X*
G04 File Origin:  Cadence Allegro 16.6-2015-S066*
G04 Origin Date:  Wed Sep 02 08:48:46 2020*
G04 *
G04 Layer:  VIA CLASS/BOTTOM*
G04 Layer:  PIN/BOTTOM*
G04 Layer:  ETCH/BOTTOM*
G04 Layer:  BOARD GEOMETRY/OUTLINE*
G04 *
G04 Offset:    (0.00 0.00)*
G04 Mirror:    No*
G04 Mode:      Positive*
G04 Rotation:  0*
G04 FullContactRelief:  No*
G04 UndefLineWidth:     6.00*
G04 ================== end FILE IDENTIFICATION RECORD ====================*
%FSLAX55Y55*MOIN*%
%IR0*IPPOS*OFA0.00000B0.00000*MIA0B0*SFA1.00000B1.00000*%
%ADD10C,.02165*%
%ADD11C,.03937*%
%ADD13R,.01181X.0315*%
%ADD12R,.01575X.0315*%
%ADD14C,.02*%
%ADD15C,.012*%
%ADD16C,.015*%
%ADD17C,.006*%
%ADD18C,.008*%
%ADD19C,.03568*%
%ADD20R,.02584X.04552*%
G75*
%LPD*%
G75*
G36*
G01X32487Y49724D02*
G03X30032Y47269I-1519J-936D01*
G02X30106Y46646I-209J-341D01*
G01X26944Y43484D01*
G02X26296Y43603I-283J283D01*
G03X24450Y44642I-1627J-731D01*
G02X24000Y45039I-50J397D01*
G01Y45252D01*
X24010Y45313D01*
G03X20589Y45311I-1711J507D01*
G01X20598Y45283D01*
Y45039D01*
G02X20148Y44642I-400J0D01*
G03X20438Y41162I-219J-1770D01*
G01X20466Y41170D01*
X20810D01*
Y40596D01*
X23090D01*
G02X23373Y39913I0J-400D01*
G01X23319Y39859D01*
Y5683D01*
X23312Y5676D01*
Y2997D01*
X21589Y1274D01*
X1917D01*
X1114Y2077D01*
Y90480D01*
X3257Y92623D01*
X51012D01*
X57068Y86567D01*
Y73608D01*
X33110Y49650D01*
G02X32487Y49724I-282J283D01*
G37*
G36*
G01X61078Y1739D02*
G03X62155Y4800I-1462J2234D01*
G01X62117Y4916D01*
X62908Y5708D01*
X64949D01*
G02X65303Y5122I0J-400D01*
G03X67004Y6395I2187J-1149D01*
G02X66642Y7070I-79J392D01*
G01X67724Y8151D01*
Y11605D01*
X66641Y12688D01*
G02X67003Y13363I283J283D01*
G03X67004Y18206I487J2421D01*
G02X66642Y18881I-79J392D01*
G01X68676Y20915D01*
Y30753D01*
X68868D01*
Y35307D01*
X66908D01*
Y36399D01*
G03X63998Y38392I-1302J1220D01*
G02X63277I-360J173D01*
G03X60368Y36399I-1608J-773D01*
G01Y35307D01*
X55096D01*
Y36338D01*
G03X55377Y36734I-1301J1221D01*
G01X65781Y47138D01*
X78799D01*
X79418Y46518D01*
X82142D01*
X82197Y46510D01*
X82211Y46506D01*
G03X84217Y47271I495J1714D01*
G02X84903Y47257I339J-213D01*
G03X84940Y49094I1547J888D01*
G02X84254Y49108I-339J213D01*
G03X82198Y49930I-1547J-888D01*
G01X82170Y49922D01*
X80828D01*
X80209Y50540D01*
X64371D01*
X52971Y39140D01*
G03X52203Y38363I824J-1582D01*
G02X51563Y38260I-357J180D01*
G01X49888Y39935D01*
Y41623D01*
G03X47286I-1301J1220D01*
G01Y38852D01*
G02X47137Y38246I-318J-243D01*
G03X46273Y35876I753J-1617D01*
G02X45911Y35307I-363J-169D01*
G01X44628D01*
Y30753D01*
X44820D01*
Y30099D01*
X49772Y25146D01*
Y24328D01*
G02X49168Y23985I-400J1D01*
G03X48906Y24121I-1359J-2298D01*
G01Y25190D01*
X43276Y30820D01*
Y35307D01*
X28880D01*
Y30820D01*
X24614Y26553D01*
Y10926D01*
X32668Y2872D01*
X33562D01*
G03X34532Y1739I2432J1101D01*
G02X34314Y1004I-219J-335D01*
G01X23276D01*
G02X22994Y1687I1J400D01*
G01X24014Y2706D01*
Y5385D01*
X24020Y5392D01*
Y39568D01*
X57770Y73317D01*
Y86858D01*
X51303Y93324D01*
X2966D01*
X1687Y92045D01*
G02X1004Y92327I-283J283D01*
G01Y127500D01*
G02X2500Y128996I1496J0D01*
G01X97500D01*
G02X98996Y127500I0J-1496D01*
G01Y2500D01*
G02X97500Y1004I-1496J0D01*
G01X61296D01*
G02X61078Y1739I1J400D01*
G37*
%LPC*%
G75*
G36*
G01X24934Y33030D02*
Y35971D01*
G02X27538I1302J1220D01*
G01Y33030D01*
G02X27529Y32887I-1301J10D01*
G01X27528Y32875D01*
Y30754D01*
X24944D01*
Y32875D01*
X24943Y32887D01*
G02X24934Y33030I1292J153D01*
G37*
G54D19*
X27745Y64767D03*
X39767Y86907D03*
X39572Y72720D03*
X39773Y67941D03*
X40836Y62822D03*
X15007Y76918D03*
X6125Y57686D03*
X8036Y62494D03*
X16871Y64799D03*
Y59799D03*
X19797Y79911D03*
X34797D03*
X16871Y54799D03*
Y49799D03*
X4591Y48484D03*
G54D20*
X71512Y33030D03*
%LPD*%
G75*
G54D10*
X6204Y6869D03*
X11204D03*
X16204D03*
X21204D03*
Y11869D03*
X16204D03*
X11204D03*
X6204D03*
Y16869D03*
X11204D03*
X16204D03*
X21204D03*
Y21869D03*
X16204D03*
X11204D03*
X6204D03*
X16871Y49799D03*
Y54799D03*
Y59799D03*
X6125Y57686D03*
X8036Y62494D03*
X19929Y42872D03*
X4591Y48484D03*
X16871Y64799D03*
X4669Y70322D03*
Y74259D03*
Y78196D03*
X19797Y79911D03*
X4797Y94911D03*
X19797D03*
X4797Y109911D03*
X19797D03*
X15007Y76918D03*
X19797Y124911D03*
X4797D03*
X48587Y42843D03*
X61669Y37619D03*
X26236Y37191D03*
X47890Y36629D03*
X53795Y37558D03*
X40926Y39357D03*
X30926D03*
X35926D03*
Y44357D03*
X30926D03*
X27745Y64767D03*
X40836Y62822D03*
X45292Y57673D03*
X29588Y37181D03*
X24669Y42872D03*
X22299Y45820D03*
X53822Y45958D03*
X40843Y52554D03*
X43953Y36629D03*
X30968Y48788D03*
X65606Y37619D03*
X31053Y69098D03*
X27246Y72905D03*
X50708Y80974D03*
Y84911D03*
Y88848D03*
X64797Y79911D03*
X34797D03*
X64797Y94911D03*
X34797D03*
X49797D03*
X64797Y109911D03*
X34797D03*
X49797D03*
X39767Y86907D03*
X39572Y72720D03*
X39773Y67941D03*
X64797Y124911D03*
X49797D03*
X34797D03*
X74354Y14644D03*
Y4644D03*
X84354Y14644D03*
Y4644D03*
X94354D03*
Y14644D03*
X86450Y48145D03*
X82707Y48220D03*
X74354Y34644D03*
Y24644D03*
X84354Y34644D03*
Y24644D03*
X94354D03*
Y34644D03*
Y44644D03*
X75725Y61900D03*
X90768Y57861D03*
X70776Y57739D03*
X70008Y28795D03*
X73079Y42872D03*
X77819D03*
X75449Y45820D03*
X77071Y52620D03*
X97007Y52742D03*
X75725Y71900D03*
Y81900D03*
X79797Y94911D03*
X94797D03*
X79797Y109911D03*
X94797D03*
X81777Y83069D03*
X81626Y68972D03*
X94797Y124911D03*
X79797D03*
G54D11*
X63553Y9878D03*
X59616Y3973D03*
Y15784D03*
X55679Y9878D03*
X51742Y3973D03*
Y15784D03*
X47805Y9878D03*
X43868Y3973D03*
Y15784D03*
X39931Y9878D03*
X35994Y3973D03*
Y15784D03*
X32057Y9878D03*
X63553Y21689D03*
X55679D03*
X47805D03*
X39931D03*
X32057D03*
X67490Y3973D03*
Y15784D03*
G54D12*
X22299Y42872D03*
X75449D03*
G54D13*
X26236Y33030D03*
X28205D03*
X30173D03*
X32142D03*
X34110D03*
X36079D03*
X38047D03*
X40016D03*
X41984D03*
X43953D03*
X45921D03*
X47890D03*
X49858D03*
X51827D03*
X53795D03*
X55764D03*
X57732D03*
X59701D03*
X61669D03*
X63638D03*
X65606D03*
X67575D03*
X69543D03*
X71512D03*
G54D14*
G01X53795Y37558D02*
X65076Y48839D01*
X79504D01*
X80123Y48220D01*
X82707D01*
G01X22299Y42872D02*
X19929D01*
G01X22299D02*
X24669D01*
G01X22299D02*
Y45820D01*
G54D15*
G01X48587Y42843D02*
Y39396D01*
X51827Y36156D01*
Y33030D01*
G01X61669D02*
Y37619D01*
G01X26236Y33030D02*
Y37191D01*
G01X47890Y33030D02*
Y36629D01*
G01X53795Y33030D02*
Y37558D01*
G01X43953Y33030D02*
Y36629D01*
G01X28205Y33030D02*
Y35798D01*
X29588Y37181D01*
G01X70008Y28795D02*
X69543Y29260D01*
Y33030D01*
G01X65606D02*
Y37619D01*
G54D16*
G01X67490Y15784D02*
X70161D01*
G01X67490D02*
Y13113D01*
G01Y15784D02*
Y18455D01*
G01Y3973D02*
X64819D01*
G01X67490D02*
Y6644D01*
G01Y3973D02*
X70161D01*
G54D17*
G01X2500Y0D02*
X97500D01*
G03X100000Y2500I0J2500D01*
G01Y127500D01*
G03X97500Y130000I-2500J0D01*
G01X2500D01*
G03X0Y127500I0J-2500D01*
G01Y2500D01*
G03X2500Y0I2500J0D01*
G54D18*
G01X39931Y9878D02*
Y12906D01*
X39063Y13774D01*
Y17055D01*
X39044Y17074D01*
Y18094D01*
X35326Y21812D01*
Y23043D01*
X34110Y24259D01*
Y33030D01*
G01X40016D02*
Y29334D01*
X44673Y24677D01*
Y19459D01*
X43868Y18654D01*
Y15784D01*
G01X51742Y3973D02*
Y11444D01*
X54811Y14513D01*
Y16481D01*
X58748Y20418D01*
Y27232D01*
X57732Y28248D01*
Y33030D01*
G01X43868Y3973D02*
Y11444D01*
X40609Y14703D01*
Y17671D01*
X43100Y20162D01*
Y23002D01*
X38047Y28055D01*
Y33030D01*
G01X45921D02*
Y30555D01*
X50874Y25602D01*
Y20418D01*
X47805Y17349D01*
Y9878D01*
G01X35994Y15784D02*
X31622D01*
X28419Y18987D01*
Y25097D01*
X32142Y28820D01*
Y33030D01*
G01X51742Y15784D02*
Y19164D01*
X52374Y19796D01*
Y28039D01*
X49858Y30555D01*
Y33030D01*
G01X67575D02*
Y21371D01*
X64185Y17981D01*
Y13586D01*
X66622Y11149D01*
Y8607D01*
X64824Y6809D01*
X62452D01*
X59616Y3973D01*
G01X59701Y33030D02*
Y30555D01*
X60484Y29772D01*
Y19256D01*
X62685Y17055D01*
Y14513D01*
X60080Y11908D01*
X57709D01*
X55679Y9878D01*
G01X30173Y33030D02*
Y30555D01*
X25715Y26097D01*
Y11382D01*
X33124Y3973D01*
X35994D01*
G01X47805Y21689D02*
Y24734D01*
X41984Y30555D01*
Y33030D01*
G01X63553Y21689D02*
Y30470D01*
X63638Y30555D01*
Y33030D01*
G01X55679Y21689D02*
Y24559D01*
X55764Y24644D01*
Y33030D01*
G01X39931Y21689D02*
X36079Y25541D01*
Y33030D01*
G01X75449Y42872D02*
X73079D01*
G01X75449D02*
X77819D01*
G01X75449D02*
Y45820D01*
M02*
