M48
INCH,LZ
T01C.01
T02C.02362
;LEADER: 12 
;HEADER: 
;CODE  : ASCII 
;FILE  : sophum_camera_v1-1-2.drl for board #Taaaaaz05996.tmp ... layers TOP and BOTTOM
;T01 Holesize 1. = 10.000000 Tolerance = +0.000000/-0.000000 PLATED MILS Quantity = 109
;T02 Holesize 2. = 23.620000 Tolerance = +0.000000/-0.000000 PLATED MILS Quantity = 20
%
G90
T01
X00062Y000687
X00062Y001187
X00062Y001687
X00112Y000687
X00112Y001187
X00112Y001687
X00162Y000687
X00162Y001187
X00162Y001687
X00212Y000687
X00212Y001187
X00212Y001687
X007435Y000464
X007435Y001464
X008435Y000464
X008435Y001464
X009435Y000464
X009435Y001464
X009435Y003464
X009435Y002464
X008435Y003464
X008435Y002464
X007435Y003464
X007435Y002464
X007001Y00288
X006561Y003762
X006167Y003762
X00538Y003756
X004789Y003663
X004395Y003663
X004093Y003936
X003593Y003936
X003093Y003936
X002959Y003718
X002624Y003719
X00212Y002187
X00162Y002187
X00112Y002187
X00062Y002187
X000459Y004848
X000612Y005769
X001687Y00498
X001687Y00548
X001687Y00598
X001993Y004287
X00223Y004582
X002467Y004287
X003093Y004436
X003097Y004879
X003593Y004436
X004084Y005255
X004529Y005767
X004859Y004284
X005382Y004596
X007078Y005774
X007308Y004287
X007545Y004582
X007707Y005262
X007782Y004287
X008271Y004822
X008645Y004814
X009077Y005786
X009435Y004464
X009701Y005274
X008163Y006897
X007572Y00719
X007572Y00619
X00648Y007991
X004084Y006282
X003977Y006794
X003957Y007272
X00348Y007991
X003105Y00691
X002774Y006477
X002725Y00729
X00198Y007991
X001687Y00648
X001501Y007692
X000804Y006249
X000467Y00782
X000467Y007426
X000467Y007032
X00048Y009491
X00198Y009491
X00348Y009491
X003977Y008691
X00498Y009491
X005071Y008097
X005071Y008491
X005071Y008885
X00648Y009491
X007572Y00819
X00798Y009491
X008178Y008307
X00948Y009491
X00948Y010991
X00798Y010991
X00648Y010991
X00498Y010991
X00348Y010991
X00198Y010991
X00048Y010991
X00048Y012491
X00198Y012491
X00348Y012491
X00498Y012491
X00648Y012491
X00798Y012491
X00948Y012491
T02
X003599Y000397
X003206Y000988
X003993Y000988
X003599Y001578
X003206Y002169
X003993Y002169
X00478Y002169
X004387Y001578
X00478Y000988
X004387Y000397
X005174Y000397
X005962Y000397
X005568Y000988
X005174Y001578
X005962Y001578
X005568Y002169
X006355Y002169
X006749Y001578
X006355Y000988
X006749Y000397
M30
